<svg xmlns="http://www.w3.org/2000/svg" width="307.157" height="42.004" viewBox="0 0 307.157 42.004"><defs><style>.a{fill:#1982dd;}.a,.b,.c{fill-rule:evenodd;}.b{fill:#fff;}.c{stroke:#000;}</style></defs><g transform="translate(-0.218 -0.491)"><path class="a" d="M88.86,42.495H9.466V20.487h9.25l0-9.262H88.86ZM17.429,19.2H9.52V11.29h7.906ZM12.266.5,21.607.491V9.842H12.259ZM2.792,5.467H8.539v5.749H2.792Zm3.174,13.6H.218V13.316H5.966Z"/><path class="b" d="M151.434,85.944a5.834,5.834,0,0,0,2,1.281,6.9,6.9,0,0,0,2.542.454,9.033,9.033,0,0,0,2.023-.214,7.182,7.182,0,0,0,1.783-.667v3.55a6.33,6.33,0,0,1-1.85.667,11.1,11.1,0,0,1-2.089.187,11.686,11.686,0,0,1-4.125-.707,9.419,9.419,0,0,1-3.247-2,9.015,9.015,0,0,1-2.116-3.136,10.631,10.631,0,0,1-.759-4.084,10.46,10.46,0,0,1,.759-4.044,9.234,9.234,0,0,1,2.129-3.15,9.528,9.528,0,0,1,3.26-2.042,11.561,11.561,0,0,1,4.152-.721,11.421,11.421,0,0,1,2.009.173,6.678,6.678,0,0,1,1.823.6v3.657a6.777,6.777,0,0,0-1.757-.667,9.062,9.062,0,0,0-2.023-.214,6.98,6.98,0,0,0-2.568.454,5.6,5.6,0,0,0-1.983,1.295,5.936,5.936,0,0,0-1.291,2.042,7.328,7.328,0,0,0-.466,2.669,6.867,6.867,0,0,0,.479,2.616A5.9,5.9,0,0,0,151.434,85.944ZM127.254,71.662h11.551v3.444H131.22V79.35h6.334v3.337H131.22v4.752h7.585v3.444H127.254Zm-12.083,19.22h-3.992V75.052h-5.11v-3.39h14.213v3.39h-5.11Z" transform="translate(-80.734 -54.018)"/><path class="c" d="M207.746,14.927a7.9,7.9,0,0,1-1.686,2.694,7.5,7.5,0,0,1-2.59,1.74,8.666,8.666,0,0,1-3.312.616,9.618,9.618,0,0,1-3.553-.64,8.033,8.033,0,0,1-4.649-4.651,9.923,9.923,0,0,1-.662-3.7,9.762,9.762,0,0,1,.662-3.66,8.414,8.414,0,0,1,1.855-2.851,8.235,8.235,0,0,1,2.843-1.848,9.776,9.776,0,0,1,3.625-.652,8.369,8.369,0,0,1,6.239,2.344l-2.072,2.585A6.353,6.353,0,0,0,202.6,5.649a5.511,5.511,0,0,0-2.276-.459,5.593,5.593,0,0,0-2.168.411,4.833,4.833,0,0,0-1.7,1.172A5.414,5.414,0,0,0,195.352,8.6a6.718,6.718,0,0,0-.4,2.368,6.862,6.862,0,0,0,.4,2.416,5.409,5.409,0,0,0,1.108,1.824,4.7,4.7,0,0,0,1.7,1.16,5.674,5.674,0,0,0,2.144.4,5.035,5.035,0,0,0,1.759-.3,4.222,4.222,0,0,0,1.421-.858,4,4,0,0,0,.951-1.353,5.1,5.1,0,0,0,.4-1.812h-4.5V9.684h7.853a5.863,5.863,0,0,1,.132.894q.036.484.036.894A9.578,9.578,0,0,1,207.746,14.927ZM172.287,8.476V19.687h-3.372V2.291h2.313l9.732,11.235V2.291h3.4v17.4h-2.312ZM157.762,2.291h3.589v17.4h-3.589Zm-10.936,17.4h-3.613V5.36h-4.625V2.291h12.864V5.36h-4.625Zm-24.378-17.4H132.9V5.408h-6.865V9.249h5.733v3.02h-5.733v4.3H132.9v3.117H122.448Zm-10.936,17.4-6.215-7.8v7.8h-3.589V2.291H105.3V10l5.95-7.707h4.312l-6.817,8.384,7.4,9.012Zm-20.162,0L87.3,13.55H85.52v6.137H81.93V2.291h5.492a11,11,0,0,1,2.818.338,6.427,6.427,0,0,1,2.192,1.015,4.635,4.635,0,0,1,1.421,1.7,5.38,5.38,0,0,1,.506,2.4,5.457,5.457,0,0,1-.939,3.31,5.584,5.584,0,0,1-2.577,1.909l4.673,6.717Zm-1.6-13.82a4.566,4.566,0,0,0-2.614-.652H85.52v5.533h1.542a4.416,4.416,0,0,0,2.674-.713A2.541,2.541,0,0,0,90.7,7.848,2.24,2.24,0,0,0,89.747,5.867ZM70.127,16.039H63l-1.445,3.648H57.769l7.419-17.4h2.987l7.444,17.4H71.6ZM66.562,7.051l-2.505,6.282h5.011ZM47.628,9.177l-4.794,10.51H40.353L35.608,9.274,34.572,19.687H31.2l1.807-17.4h2.987l5.854,13.071L47.773,2.291h2.7l1.807,17.4H48.712ZM18.312,12.028h6.913v2.73H18.312ZM1.691,2.291H12.146V5.408H5.28V9.249h5.733v3.02H5.28v4.3h6.865v3.117H1.691Z" transform="translate(98.527 15.514)"/></g></svg>